<?xml version="1.0" standalone="no"?>
<!DOCTYPE svg PUBLIC "-//W3C//DTD SVG 20010904//EN"
 "http://www.w3.org/TR/2001/REC-SVG-20010904/DTD/svg10.dtd">
<svg version="1.0" xmlns="http://www.w3.org/2000/svg"
 width="1080.000000pt" height="1080.000000pt" viewBox="0 0 1080.000000 1080.000000"
 preserveAspectRatio="xMidYMid meet">

<g transform="translate(0.000000,1080.000000) scale(0.100000,-0.100000)"
fill="#000000" stroke="none">
<path d="M6670 7399 c-149 -23 -281 -88 -411 -202 -46 -41 -500 -493 -1009
-1003 -672 -675 -934 -944 -958 -985 -202 -345 -29 -769 354 -870 163 -43 360
-2 499 104 22 17 388 377 812 801 l773 771 -107 107 -108 108 -790 -789 c-721
-719 -794 -790 -839 -805 -62 -20 -118 -20 -187 0 -68 20 -158 106 -177 170
-21 71 -15 163 13 220 35 69 1932 1966 2019 2018 177 106 417 75 566 -74 50
-50 81 -99 110 -175 19 -48 23 -79 23 -155 0 -109 -20 -178 -77 -262 -19 -29
-599 -616 -1288 -1303 -1359 -1356 -1295 -1298 -1462 -1350 -192 -62 -408 -33
-576 76 -215 139 -336 404 -301 656 14 99 57 217 104 285 17 25 503 521 1079
1100 l1047 1055 -105 104 -104 104 -1031 -1030 c-567 -567 -1052 -1057 -1078
-1090 -123 -155 -188 -313 -212 -516 -30 -266 67 -558 255 -766 113 -125 297
-233 475 -280 81 -21 118 -25 241 -25 125 -1 159 3 244 26 119 31 257 97 346
165 36 27 635 620 1331 1318 1377 1379 1315 1312 1373 1484 86 257 39 515
-133 732 -136 170 -333 270 -556 281 -49 3 -119 0 -155 -5z"/>
</g>
</svg>
